<svg width="520" height="520" viewBox="0 0 520 520" fill="none" xmlns="http://www.w3.org/2000/svg">
  <defs>
    <filter id="softShadow" x="0" y="0" width="520" height="520" filterUnits="userSpaceOnUse" color-interpolation-filters="sRGB">
      <feDropShadow dx="0" dy="12" stdDeviation="10" flood-color="#0F172A" flood-opacity="0.18"/>
    </filter>
  </defs>
  <g filter="url(#softShadow)">
    <circle cx="172" cy="118" r="102" fill="#FFFFFF" fill-opacity="0.7"/>
    <circle cx="172" cy="118" r="92" stroke="#284B7A" stroke-width="10"/>
    <path d="M170 173C171.7 137.3 170.2 102.4 157 74" stroke="#284B7A" stroke-width="10" stroke-linecap="round"/>
    <path d="M171 172C175.4 139.9 186.1 115.1 207 91" stroke="#284B7A" stroke-width="10" stroke-linecap="round"/>
    <path d="M171 171C157.6 142.7 136.7 123.7 109 111" stroke="#284B7A" stroke-width="10" stroke-linecap="round"/>
    <path d="M171 171C190.7 153.3 214.7 144.9 241 145" stroke="#284B7A" stroke-width="10" stroke-linecap="round"/>
    <path d="M171 170C153.9 156 135.1 149.7 113 151" stroke="#284B7A" stroke-width="10" stroke-linecap="round"/>
    <circle cx="169" cy="74" r="18" fill="#284B7A"/>
    <circle cx="110" cy="111" r="12" fill="#2A9DD6"/>
    <circle cx="132" cy="92" r="10" fill="#F97316"/>
    <circle cx="145" cy="132" r="9" fill="#84CC16"/>
    <circle cx="206" cy="93" r="12" fill="#EAB308"/>
    <circle cx="227" cy="118" r="10" fill="#F97316"/>
    <circle cx="239" cy="145" r="8" fill="#EF4444"/>
    <circle cx="202" cy="136" r="10" fill="#84CC16"/>
    <circle cx="99" cy="150" r="8" fill="#EAB308"/>
    <circle cx="127" cy="157" r="9" fill="#2A9DD6"/>
    <circle cx="181" cy="122" r="9" fill="#EF4444"/>
    <circle cx="190" cy="56" r="9" fill="#EAB308"/>
    <circle cx="145" cy="56" r="8" fill="#EF4444"/>
    <path d="M150 190H197" stroke="#284B7A" stroke-width="6" stroke-linecap="round"/>
    <text x="74" y="265" font-family="Arial, sans-serif" font-size="72" font-weight="900" fill="#111827" letter-spacing="2">STEAM</text>
    <text x="121" y="292" font-family="Arial, sans-serif" font-size="28" font-weight="700" fill="#284B7A" letter-spacing="6">NURSERY</text>
    <g transform="translate(24 312) rotate(-4 225 86)">
      <text x="0" y="76" font-family="Arial, sans-serif" font-size="92" font-weight="900" fill="#2A9DD6" stroke="#FFFFFF" stroke-width="18" paint-order="stroke fill">LAND</text>
      <text x="0" y="164" font-family="Arial, sans-serif" font-size="118" font-weight="900" fill="#F97316" stroke="#FFFFFF" stroke-width="20" paint-order="stroke fill">TRICKS</text>
    </g>
  </g>
</svg>